<?xml version="1.0" encoding="utf-8"?>
<!-- Generator: Adobe Illustrator 22.1.0, SVG Export Plug-In . SVG Version: 6.00 Build 0)  -->
<svg version="1.1" id="Layer_1" xmlns="http://www.w3.org/2000/svg" xmlns:xlink="http://www.w3.org/1999/xlink" x="0px" y="0px"
	 viewBox="0 0 192 192" style="enable-background:new 0 0 192 192;" xml:space="preserve">
<style type="text/css">
	.st0{fill:#2B5797;}
</style>
<g>
	<path class="st0" d="M191.6,25.6c-0.7-3.2-1.4-5.2-3-8.3c-4.4-8.6-12.1-14.5-21.9-16.9c-2-0.5-5.4-0.5-69.7-0.6
		C59.7-0.1,29-0.1,28.5,0C24.3,0.5,21,1.5,17.3,3.4C11.2,6.5,6.5,11.3,3.4,17.3c-1.5,3.1-2.3,5.1-3,8.3c-0.5,2.2-0.5,5.6-0.5,70.4
		s0,68.2,0.5,70.4c0.7,3.2,1.4,5.2,3,8.3c3.1,6.1,7.8,10.8,13.9,13.9c3.1,1.6,5.1,2.3,8.3,3c2.2,0.5,5.6,0.5,70.4,0.5
		s68.2,0,70.4-0.5c3.2-0.7,5.2-1.4,8.3-3c6.1-3.1,10.8-7.8,13.9-13.9c1.6-3.1,2.3-5.1,3-8.3c0.5-2.2,0.5-5.6,0.5-70.4
		S192.1,27.9,191.6,25.6z M26.7,24.8h13.5v19.7h18.4V24.8h13.5v53.7H58.6V54.7H40.2v23.8H26.7L26.7,24.8L26.7,24.8z M66.8,167.1
		H35.6v-53.7h7.1v47.3h24L66.8,167.1L66.8,167.1z M78.8,167.1H72v-40.3h6.8V167.1z M79.2,120.1h-7.7v-7h7.7V120.1z M83.1,24.8h13.5
		v43.4H119v10.2H83.1V24.8z M117.7,162.2c-3.2,4-7.2,6-12,6c-2.2,0-4.1-0.3-5.6-0.8c-1.5-0.5-3.1-1.3-4.6-2.2l-0.4,1.9h-6.4V111h6.8
		v20c1.7-1.5,3.5-2.8,5.5-3.8s4.2-1.5,6.8-1.5c4.5,0,8.1,1.8,10.7,5.5c2.6,3.7,3.9,8.7,3.9,15.1
		C122.5,152.9,120.9,158.2,117.7,162.2z M155.1,160.4c-0.7,1.5-1.7,2.9-3,4c-1.4,1.2-3.1,2.1-4.9,2.7c-1.8,0.6-4.1,0.9-6.8,0.9
		c-2.7,0-5.2-0.4-7.5-1.1c-2.4-0.7-4.3-1.5-5.8-2.3V157h0.4c0.6,0.5,1.3,1,2,1.5c0.8,0.6,1.8,1.1,3.1,1.7c1.2,0.5,2.4,1,3.8,1.4
		c1.4,0.4,2.8,0.6,4.3,0.6c1.1,0,2.2-0.1,3.5-0.4c1.2-0.2,2.1-0.6,2.7-0.9c0.8-0.6,1.4-1.1,1.8-1.8c0.4-0.6,0.6-1.6,0.6-2.8
		c0-1.6-0.4-2.8-1.3-3.7c-0.9-0.8-2.4-1.5-4.7-2.1c-0.9-0.2-2-0.5-3.4-0.8c-1.4-0.3-2.7-0.6-3.9-0.9c-3.1-0.9-5.3-2.3-6.7-4.1
		c-1.4-1.9-2.1-4.1-2.1-6.8c0-3.6,1.4-6.6,4.1-8.9c2.7-2.3,6.4-3.4,10.9-3.4c2.2,0,4.5,0.3,6.7,0.8s4.2,1.3,5.7,2.1v7.2h-0.4
		c-1.7-1.4-3.7-2.5-5.8-3.2c-2.1-0.8-4.3-1.2-6.4-1.2c-2.2,0-4.1,0.5-5.7,1.4c-1.5,0.9-2.3,2.4-2.3,4.2c0,1.7,0.5,2.9,1.4,3.8
		c0.9,0.8,2.4,1.5,4.4,2c1,0.3,2.1,0.5,3.4,0.8c1.2,0.2,2.5,0.6,3.9,0.9c3,0.7,5.2,2,6.7,3.7c1.5,1.7,2.2,4.1,2.2,7.1
		C156.2,157.2,155.8,158.8,155.1,160.4z M159,74.6c-4.2,3.2-9.9,4.9-17,4.9c-4.1,0-7.7-0.4-10.8-1.2c-3.1-0.8-6-1.8-8.7-2.9V62.5
		h1.2c2.7,2.3,5.7,4,8.9,5.3c3.3,1.2,6.4,1.8,9.4,1.8c0.8,0,1.8-0.1,3.1-0.2c1.3-0.2,2.3-0.4,3.1-0.8c0.9-0.4,1.7-1,2.4-1.7
		s1-1.7,1-2.9c0-1.3-0.5-2.4-1.6-3.3s-2.3-1.4-3.8-1.8c-1.8-0.5-3.8-0.9-5.9-1.4c-2.1-0.4-4-1-5.8-1.6c-4.2-1.5-7.1-3.4-9-5.9
		c-1.8-2.5-2.7-5.6-2.7-9.3c0-5,2.1-9.1,6.4-12.2s9.6-4.7,15.9-4.7c3.2,0,6.4,0.3,9.5,1c3.2,0.6,6,1.5,8.5,2.6v12.3h-1.2
		c-2-1.7-4.4-3.2-7.3-4.3c-2.9-1.2-5.8-1.8-8.8-1.8c-1.2,0-2.2,0.1-3.2,0.2c-0.9,0.2-1.9,0.5-2.9,1c-0.8,0.4-1.6,0.9-2.2,1.7
		c-0.6,0.8-0.9,1.6-0.9,2.5c0,1.4,0.5,2.5,1.5,3.3c1,0.8,2.8,1.5,5.7,2.2c1.8,0.4,3.5,0.8,5.2,1.2c1.7,0.4,3.5,0.9,5.4,1.6
		c3.7,1.3,6.5,3.2,8.3,5.4c1.8,2.3,2.7,5.3,2.7,9C165.3,67,163.2,71.3,159,74.6z"/>
	<path class="st0" d="M106.2,132.2c-1.9,0-3.7,0.4-5.6,1.3c-1.9,0.9-3.6,2-5.1,3.3v23.1c1.7,0.8,3.2,1.4,4.5,1.8s2.8,0.5,4.4,0.5
		c3.5,0,6.2-1.2,8.1-3.7s2.9-6.3,2.9-11.6c0-4.8-0.7-8.5-2.2-11C111.8,133.4,109.5,132.2,106.2,132.2z"/>
</g>
</svg>
