<?xml version="1.0" encoding="utf-8"?>
<!-- Generator: Adobe Illustrator 22.1.0, SVG Export Plug-In . SVG Version: 6.00 Build 0)  -->
<svg version="1.1" id="Layer_1" xmlns="http://www.w3.org/2000/svg" xmlns:xlink="http://www.w3.org/1999/xlink" x="0px" y="0px"
	 viewBox="0 0 933.3 933.3" style="enable-background:new 0 0 933.3 933.3;" xml:space="preserve">
<g>
	<path d="M930.3,125.4c-3.3-15.6-6.9-25.2-14.5-40.3c-21.2-41.6-58.5-70.4-106.4-81.9c-9.5-2.3-26.4-2.4-338-2.7
		C290.9,0.5,141.6,0.8,139.3,1c-20.4,2.5-36.1,7.3-54.3,16.7c-29.5,15.1-52.4,38-67.5,67.5C10,100.2,6.4,109.8,3.1,125.4
		c-2.3,10.8-2.4,27.1-2.4,341.3s0.1,330.5,2.4,341.3c3.3,15.6,6.9,25.2,14.5,40.3c15.1,29.5,38,52.4,67.5,67.5
		c15.1,7.6,24.7,11.2,40.3,14.5c10.8,2.3,27.1,2.4,341.3,2.4s330.5-0.1,341.3-2.4c15.6-3.3,25.2-6.9,40.3-14.5
		c29.5-15.1,52.4-38,67.5-67.5c7.6-15.1,11.2-24.7,14.5-40.3c2.3-10.8,2.4-27.1,2.4-341.3S932.5,136.2,930.3,125.4z M130.8,121.4
		h65.4v95.3h89v-95.3h65.4v260.3h-65.4V266.3h-89v115.4h-65.4V121.4z M324.9,811.3H174V551h34.6v229.5h116.2V811.3z M383.1,811.3
		h-32.9V616h32.9V811.3z M385.4,583.3H348v-34.1h37.4V583.3z M404.3,121.4h65.4V332h108.4v49.6H404.3V121.4z M571.9,787.5
		c-15.5,19.5-34.9,29.2-58.2,29.2c-10.6,0-19.7-1.3-27.2-3.9c-7.5-2.6-14.9-6.1-22.3-10.6l-2.1,9.1h-30.8v-272h32.9v97.2
		c8.3-7.5,17.2-13.6,26.9-18.5c9.7-4.9,20.6-7.3,32.9-7.3c22,0,39.4,8.8,52.1,26.5c12.7,17.7,19.1,42.1,19.1,73.3
		C595.1,742.3,587.4,768,571.9,787.5z M753.4,778.8c-3.3,7.5-8.2,14-14.6,19.3c-7,5.8-14.9,10.3-23.7,13.3c-8.8,3-19.8,4.5-33.1,4.5
		c-13.1,0-25.3-1.7-36.6-5.2c-11.4-3.5-20.8-7.2-28.2-11.2v-36.9h1.7c2.8,2.2,6.1,4.7,9.9,7.3c3.8,2.7,8.8,5.5,15.1,8.4
		c5.6,2.6,11.7,4.8,18.4,6.8c6.7,2,13.7,3,20.9,3c5.2,0,10.8-0.6,16.8-1.8c5.9-1.2,10.4-2.8,13.3-4.6c4.1-2.7,7-5.5,8.8-8.6
		c1.8-3,2.7-7.6,2.7-13.6c0-7.8-2.1-13.7-6.4-17.7c-4.3-4-11.8-7.3-22.6-10c-4.2-1-9.7-2.3-16.4-3.7c-6.8-1.4-13-2.9-18.7-4.5
		c-14.9-4.3-25.8-11-32.5-20c-6.8-9-10.1-20-10.1-32.8c0-17.6,6.6-31.9,19.9-43c13.3-11.1,30.9-16.6,53-16.6c10.8,0,21.7,1.3,32.7,4
		c11,2.7,20.2,6.1,27.6,10.1v35.1h-1.7c-8.4-6.6-17.7-11.9-28.1-15.7c-10.3-3.8-20.7-5.8-31.2-5.8c-10.8,0-20,2.3-27.4,6.8
		c-7.5,4.5-11.2,11.4-11.2,20.6c0,8.2,2.2,14.2,6.6,18.3c4.4,4,11.5,7.3,21.3,9.9c4.9,1.3,10.3,2.5,16.3,3.8c6,1.2,12.3,2.7,19,4.3
		c14.4,3.6,25.3,9.6,32.6,18c7.3,8.4,10.9,19.8,10.9,34.3C758.4,763.4,756.8,771.3,753.4,778.8z M772,362.8
		c-20.3,15.7-47.8,23.6-82.4,23.6c-19.9,0-37.4-1.9-52.5-5.8c-15.1-3.8-29.1-8.6-42-14.3v-61.9h5.9c13,11.1,27.4,19.6,43.2,25.5
		s31,8.9,45.8,8.9c3.7,0,8.7-0.4,14.8-1.2c6.1-0.8,11-2.1,14.8-3.8c4.5-2,8.4-4.7,11.5-8.3c3.1-3.6,4.7-8.2,4.7-14.1
		c0-6.5-2.6-11.8-7.7-15.9c-5.1-4.1-11.2-7-18.4-8.9c-8.9-2.3-18.3-4.5-28.4-6.6c-10.1-2.1-19.5-4.7-28.2-7.7
		c-20.2-7.1-34.6-16.7-43.4-28.7c-8.7-12-13.1-27-13.1-45.1c0-24.4,10.3-44.1,30.9-59.2c20.6-15.1,46.4-22.6,77.3-22.6
		c15.5,0,30.9,1.6,46.2,4.7c15.3,3.1,29,7.4,41.2,12.8v59.4h-5.8c-9.7-8.3-21.5-15.3-35.4-21c-13.9-5.7-28.2-8.6-42.9-8.6
		c-5.7,0-10.8,0.4-15.4,1.2c-4.5,0.8-9.3,2.4-14.3,4.7c-4.1,1.9-7.6,4.6-10.6,8.3c-3,3.7-4.5,7.8-4.5,12.3c0,6.6,2.4,11.9,7.1,15.8
		c4.7,3.9,13.8,7.4,27.4,10.6c8.7,2,17.2,3.9,25.3,5.8c8.1,1.9,16.8,4.4,26,7.7c18.1,6.5,31.5,15.3,40.3,26.3
		c8.8,11,13.2,25.6,13.2,43.6C802.6,326.2,792.4,347,772,362.8z"/>
	<path d="M516.3,641.9c-9,0-18,2.1-27.2,6.3c-9.2,4.2-17.5,9.5-24.9,15.9v111.9c8.3,4.1,15.6,7,22,8.7c6.4,1.7,13.5,2.5,21.2,2.5
		c16.8,0,29.9-5.9,39.5-17.8c9.6-11.9,14.3-30.6,14.3-56.3c0-23.3-3.6-41-10.7-53.1C543.5,647.9,532,641.9,516.3,641.9z"/>
</g>
</svg>
